<svg xmlns="http://www.w3.org/2000/svg" viewBox="0 0 420 80" width="420" height="80" role="img" aria-label="Round Rock Leak Repair Pros logo">
  <title>Round Rock Leak Repair Pros</title>
  <defs>
    <style>
      .logo-text { font-family: 'Archivo Black', Arial Black, sans-serif; font-weight: 900; fill: #27272A; }
      .logo-tag  { font-family: Arial, sans-serif; font-weight: 700; fill: #D97706; font-size: 10px; letter-spacing: 1.4px; text-transform: uppercase; }
    </style>
  </defs>
  <!-- Icon mark (60×72 @ left) -->
  <g transform="translate(4,4) scale(0.577)">
    <path d="M50 5 C28 5,10 23,10 45 C10 75,50 116,50 116 C50 116,90 75,90 45 C90 23,72 5,50 5 Z" fill="#27272A"/>
    <circle cx="50" cy="44" r="24" fill="#FFFFFF"/>
    <path d="M50 85 C38 70,34 60,34 51 C34 40,41 35,50 35 C59 35,66 40,66 51 C66 60,62 70,50 85 Z" fill="#F59E0B"/>
  </g>
  <!-- Brand name -->
  <text x="76" y="36" font-size="22" class="logo-text">ROUND ROCK LEAK</text>
  <text x="76" y="60" font-size="22" class="logo-text">REPAIR PROS</text>
  <!-- Tagline -->
  <text x="77" y="73" class="logo-tag">Round Rock, TX · 24/7</text>
</svg>
